<svg xmlns="http://www.w3.org/2000/svg" width="158.75006103515625" height="242.67428588867188" viewBox="1.3781394958496094 -21.214557647705078 158.75006103515625 242.67428588867188"><title>Neo4j Graph Visualization</title><desc>Created using Neo4j (http://www.neo4j.com/)</desc><g class="layer relationships"><g class="relationship" transform="translate(131.12820671480222 7.785443404932166) rotate(518.9754769964834)"><path class="outline" fill="#A5ABB6" stroke="none" d="M 21.40063509461097,12.933012701892217 L 21.90063509461097,12.06698729810778 A 59.92173751859248 59.92173751859248 0 0 0 41.146679949163556,19.129216960281475 L 40.96786631076699,20.11309992218466 A 60.92173751859248 60.92173751859248 0 0 1 21.40063509461097,12.933012701892217 Z M 59.0411906710545,20.670432034262426 L 58.9233396853541,19.67740074312934 A 59.92173751859248 59.92173751859248 0 0 0 78.56796180659971,13.814453356515397 L 77.23089487269749,11.128889725866266 L 85.0571214337647,11.14222444918509 L 80.35071771846933,17.39520486404757 L 79.0136507845671,14.70964123339844 A 60.92173751859248 60.92173751859248 0 0 1 59.0411906710545,20.670432034262426"/><text text-anchor="middle" pointer-events="none" font-size="8px" fill="#000000" x="49.99914727106631" y="23.56626970696052" transform="rotate(180 49.99914727106631 20.56626970696052)" font-family="sans-serif">trek</text></g><g class="relationship" transform="translate(30.843784293119807 46.33028168420752) rotate(450.2500243709486)"><path class="outline" fill="#A5ABB6" stroke="none" d="M 25 0.5 L 40.85396031923679 0.5 L 40.85396031923679 -0.5 L 25 -0.5 Z M 58.85396031923679 0.5 L 74.70792063847358 0.5 L 74.70792063847358 3.5 L 81.70792063847358 0 L 74.70792063847358 -3.5 L 74.70792063847358 -0.5 L 58.85396031923679 -0.5 Z"/><text text-anchor="middle" pointer-events="none" font-size="8px" fill="#000000" x="49.85396031923679" y="3" transform="rotate(180 49.85396031923679 0)" font-family="sans-serif">trek</text></g><g class="relationship" transform="translate(30.378139244108375 153.0371863421307) rotate(381.52931983355677)"><path class="outline" fill="#A5ABB6" stroke="none" d="M 25 0.5 L 41.21251466774553 0.5 L 41.21251466774553 -0.5 L 25 -0.5 Z M 59.21251466774553 0.5 L 75.42502933549106 0.5 L 75.42502933549106 3.5 L 82.42502933549106 0 L 75.42502933549106 -3.5 L 75.42502933549106 -0.5 L 59.21251466774553 -0.5 Z"/><text text-anchor="middle" pointer-events="none" font-size="8px" fill="#000000" x="50.21251466774553" y="3" font-family="sans-serif">trek</text></g><g class="relationship" transform="translate(131.12820671480222 7.785443404932166) rotate(518.9754769964834)"><path class="outline" fill="#A5ABB6" stroke="none" d="M 25 0.5 L 39.71840917792039 0.5 L 39.71840917792039 -0.5 L 25 -0.5 Z M 60.71840917792039 0.5 L 75.43681835584078 0.5 L 75.43681835584078 3.5 L 82.43681835584078 0 L 75.43681835584078 -3.5 L 75.43681835584078 -0.5 L 60.71840917792039 -0.5 Z"/><text text-anchor="middle" pointer-events="none" font-size="8px" fill="#000000" x="50.21840917792039" y="3" transform="rotate(180 50.21840917792039 0)" font-family="sans-serif">road</text></g><g class="relationship" transform="translate(131.12820671480222 7.785443404932166) rotate(518.9754769964834)"><path class="outline" fill="#A5ABB6" stroke="none" d="M 21.40063509461097,-12.933012701892217 L 21.90063509461097,-12.06698729810778 A 59.92173751859248 59.92173751859248 0 0 1 22.136352518841395,-12.202366877728252 L 21.640286273668803,-13.070651554778564 A 60.92173751859248 60.92173751859248 0 0 0 21.40063509461097,-12.933012701892217 Z M 78.76597420892213,-14.83225222525666 L 78.3243507186728,-13.935051749967002 A 59.92173751859248 59.92173751859248 0 0 1 78.56796180659971,-13.814453356515397 L 77.23089487269749,-11.128889725866266 L 85.0571214337647,-11.14222444918509 L 80.35071771846933,-17.39520486404757 L 79.0136507845671,-14.70964123339844 A 60.92173751859248 60.92173751859248 0 0 0 78.76597420892213,-14.83225222525666"/><text text-anchor="middle" pointer-events="none" font-size="8px" fill="#000000" x="49.999147271066306" y="-17.56626970696052" transform="rotate(180 49.999147271066306 -20.56626970696052)" font-family="sans-serif">PublicTransp…</text></g></g><g class="layer nodes"><g class="node" transform="translate(131.12820671480222,7.785443404932166)"><circle class="outline" cx="0" cy="0" r="25" fill="#F79767" stroke="#f36924" stroke-width="2px"/><text text-anchor="middle" pointer-events="none" font-family="sans-serif" dy="1.5625" font-size="25" fill="#FFFFFF"/><text text-anchor="middle" pointer-events="none" y="5" font-size="10px" fill="#FFFFFF" font-family="sans-serif"> Darjeeli…</text></g><g class="node" transform="translate(130.3081132571298,192.45973346288352)"><circle class="outline" cx="0" cy="0" r="25" fill="#57C7E3" stroke="#23b3d7" stroke-width="2px"/><text text-anchor="middle" pointer-events="none" font-family="sans-serif" dy="1.5625" font-size="25" fill="#2A2C34"/><text text-anchor="middle" pointer-events="none" y="5" font-size="10px" fill="#2A2C34" font-family="sans-serif"> Sandak…</text></g><g class="node" transform="translate(30.843784293119807,46.33028168420752)"><circle class="outline" cx="0" cy="0" r="25" fill="#F79767" stroke="#f36924" stroke-width="2px"/><text text-anchor="middle" pointer-events="none" font-family="sans-serif" dy="1.5625" font-size="25" fill="#FFFFFF"/><text text-anchor="middle" pointer-events="none" y="5" font-size="10px" fill="#FFFFFF" font-family="sans-serif"> Rimbik</text></g><g class="node" transform="translate(30.378139244108375,153.0371863421307)"><circle class="outline" cx="0" cy="0" r="25" fill="#F16667" stroke="#eb2728" stroke-width="2px"/><text text-anchor="middle" pointer-events="none" font-family="sans-serif" dy="1.5625" font-size="25" fill="#FFFFFF"/><text text-anchor="middle" pointer-events="none" y="5" font-size="10px" fill="#FFFFFF" font-family="sans-serif"> BhikeB…</text></g></g></svg>