<svg xmlns="http://www.w3.org/2000/svg" width="158.12892150878906" height="242.6761016845703" viewBox="1.605234146118164 -21.346681594848633 158.12892150878906 242.6761016845703"><title>Neo4j Graph Visualization</title><desc>Created using Neo4j (http://www.neo4j.com/)</desc><g class="layer relationships"><g class="relationship" transform="translate(130.73416416119053 7.65331847028967) rotate(518.730874617384)"><path class="outline" fill="#A5ABB6" stroke="none" d="M 21.40063509461097,12.933012701892217 L 21.90063509461097,12.06698729810778 A 59.92173964999682 59.92173964999682 0 0 0 41.146680976488035,19.129217273775282 L 40.96786734381137,20.11310023671802 A 60.92173964999682 60.92173964999682 0 0 1 21.40063509461097,12.933012701892217 Z M 59.04119170390011,20.67043233867318 L 58.923340722862164,19.677401046986766 A 59.92173964999682 59.92173964999682 0 0 0 78.56796388223921,13.814453388803154 L 77.23089694533338,11.128889759649438 L 85.05712350641552,11.142224474215183 L 80.35071979811364,17.39520489434144 L 79.01365286120782,14.709641265187726 A 60.92173964999682 60.92173964999682 0 0 1 59.04119170390011,20.67043233867318"/><text text-anchor="middle" pointer-events="none" font-size="8px" fill="#000000" x="49.99914830484567" y="23.56626999254332" transform="rotate(180 49.99914830484567 20.56626999254332)" font-family="sans-serif">trek</text></g><g class="relationship" transform="translate(30.615205597698353 46.62593087012721) rotate(450.0053541668071)"><path class="outline" fill="#A5ABB6" stroke="none" d="M 25 0.5 L 40.853960343607575 0.5 L 40.853960343607575 -0.5 L 25 -0.5 Z M 58.853960343607575 0.5 L 74.70792068721515 0.5 L 74.70792068721515 3.5 L 81.70792068721515 0 L 74.70792068721515 -3.5 L 74.70792068721515 -0.5 L 58.853960343607575 -0.5 Z"/><text text-anchor="middle" pointer-events="none" font-size="8px" fill="#000000" x="49.853960343607575" y="3" transform="rotate(180 49.853960343607575 0)" font-family="sans-serif">trek</text></g><g class="relationship" transform="translate(30.605233973068774 153.33385109142895) rotate(381.28471707558094)"><path class="outline" fill="#A5ABB6" stroke="none" d="M 25 0.5 L 41.21251365015041 0.5 L 41.21251365015041 -0.5 L 25 -0.5 Z M 59.21251365015041 0.5 L 75.42502730030083 0.5 L 75.42502730030083 3.5 L 82.42502730030083 0 L 75.42502730030083 -3.5 L 75.42502730030083 -0.5 L 59.21251365015041 -0.5 Z"/><text text-anchor="middle" pointer-events="none" font-size="8px" fill="#000000" x="50.21251365015041" y="3" font-family="sans-serif">trek</text></g><g class="relationship" transform="translate(130.73416416119053 7.65331847028967) rotate(518.730874617384)"><path class="outline" fill="#A5ABB6" stroke="none" d="M 25 0.5 L 39.718410208014895 0.5 L 39.718410208014895 -0.5 L 25 -0.5 Z M 60.718410208014895 0.5 L 75.43682041602979 0.5 L 75.43682041602979 3.5 L 82.43682041602979 0 L 75.43682041602979 -3.5 L 75.43682041602979 -0.5 L 60.718410208014895 -0.5 Z"/><text text-anchor="middle" pointer-events="none" font-size="8px" fill="#000000" x="50.218410208014895" y="3" transform="rotate(180 50.218410208014895 0)" font-family="sans-serif">road</text></g><g class="relationship" transform="translate(130.73416416119053 7.65331847028967) rotate(518.730874617384)"><path class="outline" fill="#A5ABB6" stroke="none" d="M 21.40063509461097,-12.933012701892217 L 21.90063509461097,-12.06698729810778 A 59.92173964999682 59.92173964999682 0 0 1 22.136353452403736,-12.202367411114018 L 21.640287222670914,-13.070652096985341 A 60.92173964999682 60.92173964999682 0 0 0 21.40063509461097,-12.933012701892217 Z M 78.76597530509244,-14.832252740025801 L 78.32435182979359,-13.935052257377151 A 59.92173964999682 59.92173964999682 0 0 1 78.56796388223921,-13.814453388803154 L 77.23089694533338,-11.128889759649438 L 85.05712350641552,-11.142224474215183 L 80.35071979811364,-17.39520489434144 L 79.01365286120782,-14.709641265187726 A 60.92173964999682 60.92173964999682 0 0 0 78.76597530509244,-14.832252740025801"/><text text-anchor="middle" pointer-events="none" font-size="8px" fill="#000000" x="49.99914830484567" y="-17.56626999254332" transform="rotate(180 49.99914830484567 -20.56626999254332)" font-family="sans-serif">PublicTransp…</text></g></g><g class="layer nodes"><g class="node" transform="translate(130.73416416119053,7.65331847028967)"><circle class="outline" cx="0" cy="0" r="25" fill="#F79767" stroke="#f36924" stroke-width="2px"/><text text-anchor="middle" pointer-events="none" font-family="sans-serif" dy="1.5625" font-size="25" fill="#FFFFFF"/><text text-anchor="middle" pointer-events="none" y="5" font-size="10px" fill="#FFFFFF" font-family="sans-serif"> Darjeeli…</text></g><g class="node" transform="translate(130.7025946690415,192.32942612463896)"><circle class="outline" cx="0" cy="0" r="25" fill="#57C7E3" stroke="#23b3d7" stroke-width="2px"/><text text-anchor="middle" pointer-events="none" font-family="sans-serif" dy="1.5625" font-size="25" fill="#2A2C34"/><text text-anchor="middle" pointer-events="none" y="5" font-size="10px" fill="#2A2C34" font-family="sans-serif"> Sandak…</text></g><g class="node" transform="translate(30.615205597698353,46.62593087012721)"><circle class="outline" cx="0" cy="0" r="25" fill="#F79767" stroke="#f36924" stroke-width="2px"/><text text-anchor="middle" pointer-events="none" font-family="sans-serif" dy="1.5625" font-size="25" fill="#FFFFFF"/><text text-anchor="middle" pointer-events="none" y="5" font-size="10px" fill="#FFFFFF" font-family="sans-serif"> Rimbik</text></g><g class="node" transform="translate(30.605233973068774,153.33385109142895)"><circle class="outline" cx="0" cy="0" r="25" fill="#F16667" stroke="#eb2728" stroke-width="2px"/><text text-anchor="middle" pointer-events="none" font-family="sans-serif" dy="1.5625" font-size="25" fill="#FFFFFF"/><text text-anchor="middle" pointer-events="none" y="5" font-size="10px" fill="#FFFFFF" font-family="sans-serif"> BhikeB…</text></g></g></svg>