<svg xmlns="http://www.w3.org/2000/svg" width="158.8548126220703" height="242.67364501953125" viewBox="1.3399200439453125 -21.19211196899414 158.8548126220703 242.67364501953125"><title>Neo4j Graph Visualization</title><desc>Created using Neo4j (http://www.neo4j.com/)</desc><g class="layer relationships"><g class="relationship" transform="translate(131.1947254666146 7.807888106358041) rotate(519.016820305144)"><path class="outline" fill="#A5ABB6" stroke="none" d="M 21.40063509461097,12.933012701892217 L 21.90063509461097,12.06698729810778 A 59.92173822509169 59.92173822509169 0 0 0 41.14668028969204,19.12921706419565 L 40.96786665319146,20.113100026443412 A 60.92173822509169 60.92173822509169 0 0 1 21.40063509461097,12.933012701892217 Z M 59.0411910134131,20.670432135165832 L 58.92334002925816,19.677400843849334 A 59.92173822509169 59.92173822509169 0 0 0 78.56796249461443,13.814453367217855 L 77.23089555971661,11.12888973706441 L 85.05712212078878,11.142224457481852 L 80.35071840781153,17.395204874089117 L 79.01365147291371,14.709641243935671 A 60.92173822509169 60.92173822509169 0 0 1 59.0411910134131,20.670432135165832"/><text text-anchor="middle" pointer-events="none" font-size="8px" fill="#000000" x="49.99914761373441" y="23.566269801623" transform="rotate(180 49.99914761373441 20.566269801623)" font-family="sans-serif">trek</text></g><g class="relationship" transform="translate(30.88251545407377 46.2803536832043) rotate(450.29134223332267)"><path class="outline" fill="#A5ABB6" stroke="none" d="M 25 0.5 L 40.85396026617098 0.5 L 40.85396026617098 -0.5 L 25 -0.5 Z M 58.85396026617098 0.5 L 74.70792053234196 0.5 L 74.70792053234196 3.5 L 81.70792053234196 0 L 74.70792053234196 -3.5 L 74.70792053234196 -0.5 L 58.85396026617098 -0.5 Z"/><text text-anchor="middle" pointer-events="none" font-size="8px" fill="#000000" x="49.85396026617098" y="3" transform="rotate(180 49.85396026617098 0)" font-family="sans-serif">trek</text></g><g class="relationship" transform="translate(30.339920690993758 152.986894697613) rotate(381.5706646240272)"><path class="outline" fill="#A5ABB6" stroke="none" d="M 25 0.5 L 41.21251421634865 0.5 L 41.21251421634865 -0.5 L 25 -0.5 Z M 59.21251421634865 0.5 L 75.4250284326973 0.5 L 75.4250284326973 3.5 L 82.4250284326973 0 L 75.4250284326973 -3.5 L 75.4250284326973 -0.5 L 59.21251421634865 -0.5 Z"/><text text-anchor="middle" pointer-events="none" font-size="8px" fill="#000000" x="50.21251421634865" y="3" font-family="sans-serif">trek</text></g><g class="relationship" transform="translate(131.1947254666146 7.807888106358041) rotate(519.016820305144)"><path class="outline" fill="#A5ABB6" stroke="none" d="M 25 0.5 L 39.7184095193671 0.5 L 39.7184095193671 -0.5 L 25 -0.5 Z M 60.7184095193671 0.5 L 75.4368190387342 0.5 L 75.4368190387342 3.5 L 82.4368190387342 0 L 75.4368190387342 -3.5 L 75.4368190387342 -0.5 L 60.7184095193671 -0.5 Z"/><text text-anchor="middle" pointer-events="none" font-size="8px" fill="#000000" x="50.2184095193671" y="3" transform="rotate(180 50.2184095193671 0)" font-family="sans-serif">road</text></g><g class="relationship" transform="translate(131.1947254666146 7.807888106358041) rotate(519.016820305144)"><path class="outline" fill="#A5ABB6" stroke="none" d="M 21.40063509461097,-12.933012701892217 L 21.90063509461097,-12.06698729810778 A 59.92173822509169 59.92173822509169 0 0 1 22.13635282829043,-12.202367054530278 L 21.640286588235675,-13.070651734504501 A 60.92173822509169 60.92173822509169 0 0 0 21.40063509461097,-12.933012701892217 Z M 78.76597457227103,-14.832252395887835 L 78.32435108697734,-13.935051918158877 A 59.92173822509169 59.92173822509169 0 0 1 78.56796249461443,-13.814453367217855 L 77.23089555971661,-11.12888973706441 L 85.05712212078878,-11.142224457481852 L 80.35071840781153,-17.395204874089117 L 79.01365147291371,-14.709641243935671 A 60.92173822509169 60.92173822509169 0 0 0 78.76597457227103,-14.832252395887835"/><text text-anchor="middle" pointer-events="none" font-size="8px" fill="#000000" x="49.9991476137344" y="-17.566269801623" transform="rotate(180 49.9991476137344 -20.566269801623)" font-family="sans-serif">PublicTransp…</text></g></g><g class="layer nodes"><g class="node" transform="translate(131.1947254666146,7.807888106358041)"><circle class="outline" cx="0" cy="0" r="25" fill="#F79767" stroke="#f36924" stroke-width="2px"/><text text-anchor="middle" pointer-events="none" font-family="sans-serif" dy="1.5625" font-size="25" fill="#FFFFFF"/><text text-anchor="middle" pointer-events="none" y="5" font-size="10px" fill="#FFFFFF" font-family="sans-serif"> Darjeeli…</text></g><g class="node" transform="translate(130.24142043230523,192.48154095761342)"><circle class="outline" cx="0" cy="0" r="25" fill="#57C7E3" stroke="#23b3d7" stroke-width="2px"/><text text-anchor="middle" pointer-events="none" font-family="sans-serif" dy="1.5625" font-size="25" fill="#2A2C34"/><text text-anchor="middle" pointer-events="none" y="5" font-size="10px" fill="#2A2C34" font-family="sans-serif"> Sandak…</text></g><g class="node" transform="translate(30.88251545407377,46.2803536832043)"><circle class="outline" cx="0" cy="0" r="25" fill="#F79767" stroke="#f36924" stroke-width="2px"/><text text-anchor="middle" pointer-events="none" font-family="sans-serif" dy="1.5625" font-size="25" fill="#FFFFFF"/><text text-anchor="middle" pointer-events="none" y="5" font-size="10px" fill="#FFFFFF" font-family="sans-serif"> Rimbik</text></g><g class="node" transform="translate(30.339920690993758,152.986894697613)"><circle class="outline" cx="0" cy="0" r="25" fill="#F16667" stroke="#eb2728" stroke-width="2px"/><text text-anchor="middle" pointer-events="none" font-family="sans-serif" dy="1.5625" font-size="25" fill="#FFFFFF"/><text text-anchor="middle" pointer-events="none" y="5" font-size="10px" fill="#FFFFFF" font-family="sans-serif"> BhikeB…</text></g></g></svg>